<svg width="20" height="20" viewBox="0 0 148 160" fill="none" xmlns="http://www.w3.org/2000/svg">
<path d="M139.792 75.6556C138.759 74.1179 137.213 72.9493 135.397 72.335L108.642 63.2918L128.361 62.3337C131.281 62.1893 133.909 60.68 135.397 58.3043C138.61 53.1593 145.215 37.7637 137.289 5.9487C137.134 5.32129 136.85 4.72887 136.452 4.20551C136.054 3.68215 135.551 3.23816 134.97 2.89908C134.39 2.56 133.745 2.33252 133.071 2.22969C132.397 2.12687 131.709 2.15075 131.045 2.29995C130.381 2.44698 129.754 2.71609 129.2 3.09191C128.646 3.46773 128.177 3.94289 127.818 4.4902C127.458 5.03752 127.217 5.64627 127.108 6.28164C126.998 6.91701 127.022 7.56653 127.179 8.19308C133.979 35.4668 129.167 48.4081 126.873 52.595L98.9769 53.9468V53.7631C98.9769 53.5006 98.9491 53.2512 98.9352 52.9887L113.523 48.2112C116.707 47.1612 118.988 44.4443 119.308 41.2943C119.892 35.5718 120.253 20.3862 110.978 3.1137C110.67 2.53886 110.246 2.02699 109.728 1.60749C109.21 1.18798 108.61 0.869081 107.961 0.669092C107.313 0.469104 106.629 0.39196 105.948 0.442088C105.268 0.492215 104.605 0.668628 103.997 0.961202C103.388 1.25153 102.846 1.6525 102.401 2.14112C101.957 2.62974 101.619 3.19638 101.407 3.80854C101.195 4.4207 101.113 5.06633 101.166 5.70837C101.22 6.35042 101.406 6.97625 101.716 7.54995C109.24 21.5543 109.476 33.7868 109.059 39.3125L95.7646 43.67C93.7126 40.7207 90.8206 38.3778 87.4208 36.9106C87.4069 34.0231 86.9897 27.8412 83.5827 26.6862C77.5335 24.6518 77.9367 31.5162 73.8205 31.5162C70.0102 31.5162 70.1075 24.6387 64.0583 26.6862C60.7903 27.7887 60.2758 33.5243 60.2341 36.5431C56.5211 37.9343 53.3505 40.3493 51.1394 43.4337L38.5542 39.3125C38.151 33.8 38.3874 21.5675 45.8967 7.54995C46.4887 6.3942 46.5767 5.0654 46.1418 3.84907C45.707 2.63275 44.7839 1.62594 43.5711 1.04499C42.3582 0.464027 40.9523 0.355275 39.6554 0.742093C38.3585 1.12891 37.2741 1.98043 36.6352 3.1137C27.3597 20.3862 27.7213 35.5718 28.3053 41.2943C28.4674 42.8503 29.0984 44.33 30.1236 45.5581C31.1489 46.7863 32.5254 47.7115 34.0903 48.2243L47.8297 52.7262C47.8019 53.0806 47.7741 53.4218 47.7741 53.7762V53.9206L20.7403 52.6081C18.4458 48.4212 13.6481 35.4931 20.4344 8.2062C21.088 5.56808 19.3636 2.92995 16.5685 2.31308C13.7733 1.6962 10.9781 3.3237 10.3246 5.96183C2.39799 37.7768 9.00346 53.1856 12.2158 58.3175C12.9421 59.4876 13.9656 60.4687 15.1941 61.1722C16.4225 61.8757 17.8173 62.2794 19.2524 62.3468L38.9714 63.305L12.2158 72.3481C10.3976 72.9579 8.8497 74.1276 7.82143 75.6687C4.51174 80.63 -5.44513 99.4775 5.17924 133.996C5.83284 136.136 7.91877 137.54 10.1716 137.54C10.9772 137.538 11.7712 137.359 12.4912 137.018C13.2113 136.677 13.8379 136.183 14.3216 135.575C14.8054 134.967 15.1332 134.262 15.2794 133.514C15.4255 132.767 15.386 131.997 15.1639 131.266C5.95799 101.354 13.8706 85.3418 16.3042 81.3912L48.0661 70.655C48.0661 70.6943 48.08 70.7337 48.08 70.76L28.0133 88.0718C26.8313 89.0956 25.9691 90.4081 25.5241 91.8781C23.8971 97.2462 16.4433 125.609 29.0007 156.059C29.3808 156.979 30.046 157.769 30.9094 158.326C31.7727 158.884 32.7941 159.182 33.84 159.183C34.4658 159.183 35.1055 159.078 35.7174 158.842C37.0003 158.367 38.0321 157.433 38.5872 156.242C39.1422 155.052 39.1754 153.703 38.6794 152.489C27.6239 125.701 33.701 100.777 35.3836 94.9887L52.8221 79.9606C54.5539 81.7771 56.6409 83.2611 58.9686 84.3312C51.8903 85.5125 45.9385 90.3031 43.8803 96.9312C42.0864 102.719 41.1269 110.883 42.7817 122.157C47.0927 151.715 68.7864 155.679 73.7092 155.679C78.6321 155.679 99.6722 151.702 103.983 122.157C105.624 110.883 104.678 102.719 102.885 96.9312C100.826 90.3031 94.8885 85.5125 87.8102 84.3312C90.3272 83.1893 92.5661 81.5618 94.36 79.5537L112.271 94.9887C113.954 100.777 120.031 125.701 108.975 152.489C107.933 155.009 109.254 157.857 111.938 158.842C112.563 159.065 113.189 159.183 113.815 159.183C115.901 159.183 117.862 158.002 118.654 156.059C131.212 125.609 123.758 97.2462 122.131 91.8781C121.686 90.4181 120.825 89.1014 119.642 88.0718L99.3385 70.5631L131.351 81.3781C133.798 85.3287 141.697 101.328 132.491 131.253C131.684 133.852 133.27 136.569 136.037 137.33C136.524 137.461 137.01 137.527 137.483 137.527C139.736 137.527 141.808 136.136 142.476 133.983C153.072 99.4643 143.101 80.6168 139.792 75.6556Z" fill="white"/>
</svg>
