<svg width="15" height="15" viewBox="0 0 154 153" fill="none" xmlns="http://www.w3.org/2000/svg">
<path d="M81.4569 0.000538375C68.0038 0.0377799 60.042 3.60687 54.9297 9.057C49.4769 14.8701 47.0272 23.3256 45.7533 33.1336C44.4789 42.9417 44.4006 53.9198 43.1782 64.3241C41.9558 74.728 39.5882 84.7216 33.1746 92.2234C27.9965 98.2809 19.3066 100.96 12.5663 104.104C9.1956 105.676 6.33957 107.328 4.74034 108.963C3.14111 110.598 2.62058 111.766 3.1087 114.092C3.46751 115.802 3.63512 115.767 4.96165 116.077C5.04677 116.097 5.15022 116.11 5.24483 116.126C5.42718 117.931 5.50673 120.104 5.06575 121.473C4.21229 124.122 -0.0943434 125.221 0.00157773 128.012C0.124344 131.573 3.60435 136.321 7.02052 135.859C10.0291 135.452 11.3985 130.672 11.2738 127.537C11.2063 125.845 8.98444 124.909 8.6299 123.256C8.22591 121.375 8.71861 118.373 9.20215 116.168C9.9872 116.116 10.8243 116.044 11.7105 115.956C17.5797 115.367 25.6318 114.34 32.3051 119.653L32.3666 119.702L32.4255 119.754C35.0511 122.082 36.2234 125.116 36.9132 127.802C37.603 130.487 37.9353 132.95 38.5776 134.748C39.2202 136.547 39.8963 137.619 41.7224 138.517C43.5318 139.407 46.8045 139.996 52.2884 139.49C54.5614 139.085 59.9091 136.422 65.6872 133.938C71.5067 131.436 78.0699 129.044 84.4953 129.989C91.7614 131.059 96.5005 137.312 100.894 142.167C103.091 144.594 105.2 146.748 107.149 148.023C109.098 149.297 110.669 149.75 112.634 149.293C113.873 149.005 114.605 148.373 115.451 147.019C116.297 145.665 117.046 143.626 117.771 141.326C119.222 136.727 120.441 130.869 125.145 127.427C130.196 123.73 136.616 124.254 141.959 124.256C142.776 124.257 143.568 124.248 144.328 124.226C144.877 126.448 145.517 129.726 145.123 131.738C144.773 133.525 142.406 134.581 142.36 136.403C142.255 140.598 144.111 147.457 148.169 147.465C152.201 147.473 154.213 140.657 153.982 136.493C153.875 134.566 151.414 133.569 150.749 131.766C149.972 129.662 149.711 125.982 149.623 123.556C150.816 123.18 151.472 122.684 151.911 121.928C152.262 121.322 152.353 120.828 152.231 119.974C152.109 119.122 151.677 117.95 150.889 116.594C149.313 113.883 146.38 110.527 142.926 106.995C136.02 99.9304 127.099 92.2068 122.359 84.1904C120.767 81.4982 119.415 78.5744 118.242 75.4877C115.874 75.332 113.501 75.2744 111.129 75.3151C111.039 78.5141 111.032 84.6011 112.132 87.9467C113.216 91.2453 117.706 91.7785 117.765 96.6254C117.828 101.784 115.737 110.122 110.752 110.297C105.523 110.481 102.498 101.917 102.475 96.5062C102.455 91.8733 106.498 91.4867 107.188 88.4217C107.723 86.042 107.385 82.3595 106.942 79.3903C106.577 77.5316 105.218 75.4959 102.939 75.788C91.9255 76.8555 81.29 79.4899 70.557 81.7189C71.7833 74.5398 74.3961 65.5006 82.1133 59.4685C82.5936 59.0937 83.0872 58.7375 83.5931 58.4007C83.4936 60.3135 83.2736 62.4488 82.7773 63.8379C82.207 65.4349 79.8021 66.3179 79.9356 68.0144C80.1357 70.5549 82.6512 73.6047 85.1131 73.4753C87.8977 73.3284 90.6117 69.5846 90.3324 66.7157C90.2002 65.356 87.8424 65.3286 87.2911 64.0868C86.457 62.2091 86.7071 58.8208 87.0178 56.5122C94.0079 53.3974 101.658 54.1964 108.127 56.6104C110.747 57.5888 112.636 59.1726 114.069 61.0898C112.667 54.8532 111.578 48.3959 110.452 42.1146C108.919 45.874 102.882 46.3314 96.603 43.6964C101.681 40.3968 105.113 35.638 108.192 30.566C106.249 21.8373 103.766 14.1086 100.076 8.76719C96.3666 3.39798 91.7447 0.274433 84.2216 0.0408268C83.3003 0.0117088 82.3787 -0.00183562 81.4569 0.000199356V0.000538375ZM67.9265 30.4726C68.1344 30.4695 68.3449 30.5592 68.5518 30.7542C74.235 36.1167 78.7646 42.8002 86.3407 44.6724C82.9897 47.8989 75.9053 49.5477 67.6711 45.0533C64.1165 39.1972 65.9148 30.5013 67.9265 30.4726ZM81.3564 138.273C75.8133 138.307 68.8157 141.163 69.4449 145.846C70.4686 153.462 87.5278 155.663 91.5179 149.175C93.6851 145.65 88.728 139.881 84.8502 138.712C83.8373 138.407 82.6358 138.265 81.3564 138.273Z" fill="white"/>
</svg>
